<svg xmlns="http://www.w3.org/2000/svg" viewBox="0 0 7.3 8.43"><title>download</title><g id="Layer_2" data-name="Layer 2"><g id="Layer_2-2" data-name="Layer 2"><path d="M2.69,3V.21A.2.2,0,0,1,2.89,0H4.36a.21.21,0,0,1,.21.21V3a.21.21,0,0,0,.21.2H6.07a.21.21,0,0,1,.15.36L3.69,6.07a.22.22,0,0,1-.3,0L.86,3.54A.21.21,0,0,1,1,3.18H2.48A.21.21,0,0,0,2.69,3Z" style="fill:#4ae3a3"/><line x1="0.5" y1="7.93" x2="6.8" y2="7.93" style="fill:none;stroke:#4ae3a3;stroke-linecap:round;stroke-miterlimit:10"/></g></g></svg>