<svg xmlns="http://www.w3.org/2000/svg" xmlns:xlink="http://www.w3.org/1999/xlink" width="662.234" height="663.504" viewBox="0 0 175.216 175.552"><defs><linearGradient xlink:href="#a" id="c" x1="85.915" y1="32.567" x2="86.535" y2="137.092" gradientUnits="userSpaceOnUse"/><linearGradient id="a"><stop offset="0" stop-color="#57d163"/><stop offset="1" stop-color="#23b33a"/></linearGradient><filter id="b" x="-.057" width="1.115" y="-.057" height="1.114" color-interpolation-filters="sRGB"><feGaussianBlur stdDeviation="3.531"/></filter></defs><path d="M54.532 138.45l2.236 1.324c9.387 5.572 20.15 8.518 31.125 8.523h.024c33.707 0 61.14-27.425 61.153-61.135.006-16.335-6.349-31.696-17.895-43.251-11.547-11.555-26.9-17.921-43.235-17.928-33.733 0-61.165 27.423-61.178 61.13-.005 11.55 3.228 22.8 9.349 32.535l1.455 2.312-6.18 22.559zm-40.81 23.544L24.16 123.88c-6.438-11.154-9.825-23.808-9.82-36.772.016-40.555 33.02-73.55 73.577-73.55 19.68.01 38.154 7.67 52.047 21.572 13.89 13.903 21.537 32.383 21.53 52.038-.018 40.552-33.027 73.552-73.577 73.552-.003 0 .003 0 0 0h-.032a73.531 73.531 0 01-35.16-8.954zm0 0" fill="#b3b3b3" filter="url(#b)"/><path d="M12.966 161.238l10.439-38.114c-6.439-11.154-9.826-23.808-9.822-36.772.017-40.555 33.02-73.55 73.578-73.55 19.681.01 38.154 7.67 52.047 21.572 13.89 13.903 21.537 32.383 21.53 52.038-.017 40.553-33.027 73.552-73.577 73.552-.003 0 .003 0 0 0h-.032a73.531 73.531 0 01-35.16-8.954z" fill="#fff"/><path d="M87.184 25.227c-33.733 0-61.165 27.423-61.178 61.13-.005 11.55 3.228 22.8 9.35 32.535l1.454 2.312-6.18 22.56 23.147-6.07 2.235 1.324c9.387 5.572 20.15 8.518 31.125 8.524h.024c33.707 0 61.14-27.426 61.153-61.136.006-16.335-6.348-31.696-17.895-43.25-11.546-11.556-26.9-17.922-43.235-17.93z" fill="url(#linearGradient1780)"/><path d="M87.184 25.227c-33.733 0-61.165 27.423-61.178 61.13-.005 11.55 3.228 22.8 9.349 32.535l1.455 2.312-6.18 22.559 23.147-6.07 2.235 1.325c9.387 5.572 20.15 8.518 31.125 8.523h.024c33.706 0 61.14-27.425 61.153-61.135.006-16.335-6.348-31.696-17.895-43.251-11.547-11.555-26.9-17.921-43.235-17.928z" fill="url(#c)"/><path d="M68.772 55.603c-1.378-3.06-2.827-3.123-4.137-3.177-1.072-.045-2.298-.042-3.523-.042-1.227 0-3.218.46-4.902 2.3-1.685 1.84-6.435 6.286-6.435 15.332 0 9.045 6.588 17.785 7.506 19.013.919 1.226 12.718 20.38 31.405 27.75 15.53 6.123 18.69 4.905 22.061 4.599 3.371-.306 10.877-4.447 12.408-8.74 1.533-4.292 1.533-7.97 1.074-8.74-.46-.767-1.686-1.226-3.525-2.145s-10.877-5.367-12.563-5.98c-1.685-.614-2.91-.92-4.136.92-1.225 1.84-4.746 5.98-5.82 7.206-1.072 1.228-2.144 1.38-3.984.462-1.838-.922-7.76-2.861-14.783-9.124-5.466-4.873-9.155-10.891-10.228-12.73-1.072-1.84-.115-2.835.807-3.752.826-.824 1.839-2.147 2.76-3.22.916-1.074 1.223-1.84 1.835-3.065.613-1.228.307-2.301-.153-3.22-.46-.92-4.032-10.012-5.667-13.647" fill="#fff" fill-rule="evenodd"/></svg>